<svg xmlns="http://www.w3.org/2000/svg" viewBox="0 0 1024 1024" role="img" aria-label="Worldlet"><g fill="#203b30"><polygon points="132,714 352,824 536,858 536,932 346,898 166,797"/><polygon points="536,858 738,819 892,717 855,802 721,895 536,932"/><polygon points="132,714 352,824 346,898 230,817"/><polygon points="536,858 738,819 721,895"/><polygon points="132,714 294,618 680,608 892,717 738,819 536,858 352,824"/><polygon points="132,714 294,618 488,674 352,824"/><polygon points="488,674 680,608 892,717 738,819"/><polygon points="352,824 488,674 738,819 536,858"/><polygon points="512,721 541,716 585,753 560,786 610,844 563,853 522,789 544,757"/><polygon points="220,729 214,697 234,717 246,684 249,731"/><polygon points="769,754 770,721 786,742 805,716 799,761"/><polygon points="278,780 295,762 319,768 327,784 299,794"/><polygon points="278,780 299,781 319,768 327,784 299,794"/><polygon points="369,556 419,556 419,726 393,738 369,720"/><polygon points="605,556 655,556 655,715 630,732 605,719"/><polygon points="369,556 392,558 393,738 369,720"/><polygon points="605,556 627,558 630,732 605,719"/><polygon points="218,216 276,140 347,183 406,404 474,252 512,194 550,252 618,404 677,183 748,140 806,216 677,599 575,599 512,436 449,599 347,599"/><polygon points="218,216 276,140 347,183 325,278"/><polygon points="218,216 325,278 394,522 347,599"/><polygon points="325,278 347,183 406,404 394,522"/><polygon points="347,599 394,522 449,599"/><polygon points="394,522 474,252 512,194 512,362"/><polygon points="512,194 550,252 618,404 630,522 512,362"/><polygon points="394,522 512,362 512,436 449,599"/><polygon points="512,362 630,522 575,599 512,436"/><polygon points="677,183 748,140 806,216 699,278"/><polygon points="677,183 699,278 630,522 618,404"/><polygon points="699,278 806,216 677,599 630,522"/><polygon points="630,522 677,599 575,599"/></g></svg>
