<svg xmlns="http://www.w3.org/2000/svg" width="1500" height="844" viewBox="0 0 1500 844"><rect width="1500" height="844" fill="#123f73"/><defs><pattern id="m" width="20" height="20" patternUnits="userSpaceOnUse"><path d="M20 0H0V20" fill="none" stroke="#ffffff14" stroke-width="1"/></pattern><pattern id="M" width="100" height="100" patternUnits="userSpaceOnUse"><path d="M100 0H0V100" fill="none" stroke="#ffffff2a" stroke-width="1.2"/></pattern><radialGradient id="v" cx="50%" cy="45%" r="75%"><stop offset="60%" stop-color="#000" stop-opacity="0"/><stop offset="100%" stop-color="#000" stop-opacity=".35"/></radialGradient></defs><rect width="1500" height="844" fill="url(#m)"/><rect width="1500" height="844" fill="url(#M)"/><rect x="14" y="14" width="1472" height="816" fill="none" stroke="#cfe6ff" stroke-opacity=".55" stroke-width="2"/><rect x="22" y="22" width="1456" height="800" fill="none" stroke="#cfe6ff" stroke-opacity=".3" stroke-width="1"/><rect width="1500" height="844" fill="url(#v)"/><rect x="50.0" y="167.23999999999998" width="1100.0" height="526.4" fill="none" stroke="#cfe6ff" stroke-opacity=".45" stroke-dasharray="6 6"/><rect x="60.0" y="177.23999999999998" width="1080.0" height="506.4" fill="#f4f8fd"/><path d="M60.0 701.64v8" stroke="#cfe6ff" stroke-opacity=".5"/><path d="M100.0 701.64v8" stroke="#cfe6ff" stroke-opacity=".5"/><path d="M140.0 701.64v8" stroke="#cfe6ff" stroke-opacity=".5"/><path d="M180.0 701.64v8" stroke="#cfe6ff" stroke-opacity=".5"/><path d="M220.0 701.64v8" stroke="#cfe6ff" stroke-opacity=".5"/><path d="M260.0 701.64v8" stroke="#cfe6ff" stroke-opacity=".5"/><path d="M300.0 701.64v8" stroke="#cfe6ff" stroke-opacity=".5"/><path d="M340.0 701.64v8" stroke="#cfe6ff" stroke-opacity=".5"/><path d="M380.0 701.64v8" stroke="#cfe6ff" stroke-opacity=".5"/><path d="M420.0 701.64v8" stroke="#cfe6ff" stroke-opacity=".5"/><path d="M460.0 701.64v8" stroke="#cfe6ff" stroke-opacity=".5"/><path d="M500.0 701.64v8" stroke="#cfe6ff" stroke-opacity=".5"/><path d="M540.0 701.64v8" stroke="#cfe6ff" stroke-opacity=".5"/><path d="M580.0 701.64v8" stroke="#cfe6ff" stroke-opacity=".5"/><path d="M620.0 701.64v8" stroke="#cfe6ff" stroke-opacity=".5"/><path d="M660.0 701.64v8" stroke="#cfe6ff" stroke-opacity=".5"/><path d="M700.0 701.64v8" stroke="#cfe6ff" stroke-opacity=".5"/><path d="M740.0 701.64v8" stroke="#cfe6ff" stroke-opacity=".5"/><path d="M780.0 701.64v8" stroke="#cfe6ff" stroke-opacity=".5"/><path d="M820.0 701.64v8" stroke="#cfe6ff" stroke-opacity=".5"/><path d="M860.0 701.64v8" stroke="#cfe6ff" stroke-opacity=".5"/><path d="M900.0 701.64v8" stroke="#cfe6ff" stroke-opacity=".5"/><path d="M940.0 701.64v8" stroke="#cfe6ff" stroke-opacity=".5"/><path d="M980.0 701.64v8" stroke="#cfe6ff" stroke-opacity=".5"/><path d="M1020.0 701.64v8" stroke="#cfe6ff" stroke-opacity=".5"/><path d="M1060.0 701.64v8" stroke="#cfe6ff" stroke-opacity=".5"/><path d="M1100.0 701.64v8" stroke="#cfe6ff" stroke-opacity=".5"/><g transform="translate(40 718)" font-family="Menlo,monospace" fill="#cfe6ff" fill-opacity=".72"><rect width="330" height="96" fill="none" stroke="#cfe6ff" stroke-opacity=".5"/><path d="M0 34H330M220 34V96" stroke="#cfe6ff" stroke-opacity=".4"/><text x="14" y="23" font-size="15" letter-spacing="3">WORLDLET</text><text x="14" y="58" font-size="12" letter-spacing="1.5">APPLET DETAIL</text><text x="14" y="80" font-size="12" letter-spacing="1.5">SCALE 1 : 1</text><text x="234" y="58" font-size="12">SHEET</text><text x="234" y="82" font-size="18">02</text></g></svg>
