<svg xmlns="http://www.w3.org/2000/svg" width="1500" height="844" viewBox="0 0 1500 844"><rect width="1500" height="844" fill="#123f73"/><defs><pattern id="m" width="20" height="20" patternUnits="userSpaceOnUse"><path d="M20 0H0V20" fill="none" stroke="#ffffff14" stroke-width="1"/></pattern><pattern id="M" width="100" height="100" patternUnits="userSpaceOnUse"><path d="M100 0H0V100" fill="none" stroke="#ffffff2a" stroke-width="1.2"/></pattern><radialGradient id="v" cx="50%" cy="45%" r="75%"><stop offset="60%" stop-color="#000" stop-opacity="0"/><stop offset="100%" stop-color="#000" stop-opacity=".35"/></radialGradient></defs><rect width="1500" height="844" fill="url(#m)"/><rect width="1500" height="844" fill="url(#M)"/><rect x="14" y="14" width="1472" height="816" fill="none" stroke="#cfe6ff" stroke-opacity=".55" stroke-width="2"/><rect x="22" y="22" width="1456" height="800" fill="none" stroke="#cfe6ff" stroke-opacity=".3" stroke-width="1"/><g transform="translate(1110 742)" fill="none" stroke="#cfe6ff" stroke-opacity=".6" stroke-width="1.5"><circle r="34"/><circle r="4" fill="#cfe6ff" fill-opacity=".6"/><path d="M0 -46 L8 0 L0 46 L-8 0 Z"/><path d="M-46 0 L0 -6 L46 0 L0 6 Z" stroke-opacity=".35"/></g><text x="1110" y="688" fill="#cfe6ff" fill-opacity=".7" font-family="Menlo,monospace" font-size="16" text-anchor="middle">N</text><g transform="translate(40 718)" font-family="Menlo,monospace" fill="#cfe6ff" fill-opacity=".72"><rect width="330" height="96" fill="none" stroke="#cfe6ff" stroke-opacity=".5"/><path d="M0 34H330M220 34V96" stroke="#cfe6ff" stroke-opacity=".4"/><text x="14" y="23" font-size="15" letter-spacing="3">WORLDLET</text><text x="14" y="58" font-size="12" letter-spacing="1.5">SITE PLAN · ALL AREAS</text><text x="14" y="80" font-size="12" letter-spacing="1.5">SCALE 1 : 1</text><text x="234" y="58" font-size="12">SHEET</text><text x="234" y="82" font-size="18">01</text></g><rect width="1500" height="844" fill="url(#v)"/></svg>
